# xmcd
# 
# Track frame offsets:
#     150
#     13620
#     25247
#     37900
#     49537
#     63717
#     73600
#     84110
#     95600
#     113450
#     126470
#     140500
#     153852
#     184947
# 
# Disc length: 2670
# 
# Revision: 1
# Processed by: cddbd v1.5.2PL0 Copyright (c) Steve Scherf et al.
# Submitted via: fre:ac v1.0.31
# 
DISCID=b20a6c0e
DTITLE=Roots of Rhythm - Dance To The Music
DYEAR=2000
DGENRE=Rock/Pop
TTITLE0=Sly and the Family Stone/Dance to the Music
TTITLE1=Bobby Freeman/Do You Wanna Dance
TTITLE2=Major Lance/The Monkey Time
TTITLE3=Gary "U.S." Bonds/Quarter to Three
TTITLE4=Shorty Long/Devil with the Blue Dress
TTITLE5=Little Richard/Good Golly Miss Molly
TTITLE6=Arthur Conley/Sweet Soul Music
TTITLE7=Brenton Wood/The Oogum Boogum Song
TTITLE8=LaBelle/Lady Marmalade
TTITLE9=Bob and Earl/Harlem Shuffle
TTITLE10=Kool and the Gang/Jungle Boogie
TTITLE11=The Jackson 5/I Want You Back
TTITLE12=The O'Jays/I Love Music
TTITLE13=Earth, Wind and Fire/Sing a Song
EXTD=
EXTT0=
EXTT1=
EXTT2=
EXTT3=
EXTT4=
EXTT5=
EXTT6=
EXTT7=
EXTT8=
EXTT9=
EXTT10=
EXTT11=
EXTT12=
EXTT13=
PLAYORDER=
